<?xml version="1.0" standalone="no"?>
<!DOCTYPE svg PUBLIC "-//W3C//DTD SVG 20010904//EN"
 "http://www.w3.org/TR/2001/REC-SVG-20010904/DTD/svg10.dtd">
<svg version="1.0" xmlns="http://www.w3.org/2000/svg"
 width="399.000000pt" height="399.000000pt" viewBox="0 0 399.000000 399.000000"
 preserveAspectRatio="xMidYMid meet">
<metadata>
Created by potrace 1.11, written by Peter Selinger 2001-2013
</metadata>
<g transform="translate(0.000000,399.000000) scale(0.100000,-0.100000)"
fill="#000000" stroke="none">
<path d="M1848 3985 c-1 -1 -30 -5 -63 -8 -234 -22 -508 -103 -691 -203 -23
-13 -61 -34 -85 -46 -245 -131 -503 -371 -663 -616 -94 -145 -98 -151 -139
-237 -109 -225 -161 -404 -197 -680 -8 -61 -5 -400 4 -445 3 -14 10 -52 15
-85 6 -33 13 -71 16 -85 3 -14 8 -38 11 -55 23 -129 148 -426 245 -581 105
-169 267 -357 402 -468 22 -17 51 -41 65 -54 23 -19 75 -55 222 -152 121 -80
436 -197 635 -236 43 -9 81 -15 110 -20 17 -3 123 -6 238 -8 181 -3 223 0 335
20 449 80 791 256 1101 565 282 282 477 655 551 1059 17 91 19 141 16 370 -2
146 -6 279 -10 295 -4 17 -14 64 -22 105 -22 105 -84 291 -135 402 -148 321
-379 601 -658 798 -235 165 -538 295 -781 334 -19 3 -66 11 -105 17 -62 10
-408 22 -417 14z"/>
</g>
</svg>
